<?xml version="1.0" encoding="utf-8"?>
<!-- Generator: Adobe Illustrator 25.2.3, SVG Export Plug-In . SVG Version: 6.00 Build 0)  -->
<svg version="1.1" id="Layer_1" xmlns="http://www.w3.org/2000/svg" xmlns:xlink="http://www.w3.org/1999/xlink" x="0px" y="0px"
	 viewBox="0 0 24 24" style="enable-background:new 0 0 24 24;" xml:space="preserve">
<style type="text/css">
	.st0{fill:#6AC2FF;}
	.st1{fill:#FFFFFF;}
</style>
<path class="st0" d="M22,24H2c-1.1,0-2-0.9-2-2V2c0-1.1,0.9-2,2-2h20c1.1,0,2,0.9,2,2v20C24,23.1,23.1,24,22,24z"/>
<path class="st1" d="M4,16c0,0.9,0.4,1.7,1,2.2V20c0,0.5,0.4,1,1,1h1c0.6,0,1-0.5,1-1v-1h8v1c0,0.5,0.5,1,1,1h1c0.5,0,1-0.5,1-1
	v-1.8c0.6-0.5,1-1.3,1-2.2V6c0-3.5-3.6-4-8-4S4,2.5,4,6V16z M7.5,17C6.7,17,6,16.3,6,15.5S6.7,14,7.5,14S9,14.7,9,15.5
	S8.3,17,7.5,17z M16.5,17c-0.8,0-1.5-0.7-1.5-1.5s0.7-1.5,1.5-1.5s1.5,0.7,1.5,1.5S17.3,17,16.5,17z M18,11H6V6h12V11z"/>
</svg>
